<mxfile host="app.diagrams.net" modified="2023-11-27T20:34:41.877Z" agent="Mozilla/5.0 (Windows NT 10.0; Win64; x64) AppleWebKit/537.36 (KHTML, like Gecko) Chrome/119.0.0.0 Safari/537.36" etag="dknJlLQTNOaoLNYPUGUP" version="22.1.4" type="github">
  <diagram name="Page-1" id="vWiJ0688Fh7VYYs4SGUE">
    <mxGraphModel dx="2492" dy="971" grid="1" gridSize="10" guides="1" tooltips="1" connect="1" arrows="1" fold="1" page="1" pageScale="1" pageWidth="583" pageHeight="827" math="0" shadow="0">
      <root>
        <mxCell id="0" />
        <mxCell id="1" parent="0" />
        <mxCell id="AmmwaXs2EuNaA92b2rAX-17" style="edgeStyle=orthogonalEdgeStyle;rounded=0;orthogonalLoop=1;jettySize=auto;html=1;exitX=0.75;exitY=1;exitDx=0;exitDy=0;entryX=0.5;entryY=0;entryDx=0;entryDy=0;curved=1;" parent="1" source="AmmwaXs2EuNaA92b2rAX-8" target="AmmwaXs2EuNaA92b2rAX-13" edge="1">
          <mxGeometry relative="1" as="geometry" />
        </mxCell>
        <mxCell id="AmmwaXs2EuNaA92b2rAX-18" style="edgeStyle=orthogonalEdgeStyle;rounded=0;orthogonalLoop=1;jettySize=auto;html=1;exitX=0.853;exitY=1.007;exitDx=0;exitDy=0;curved=1;exitPerimeter=0;" parent="1" source="AmmwaXs2EuNaA92b2rAX-8" target="AmmwaXs2EuNaA92b2rAX-10" edge="1">
          <mxGeometry relative="1" as="geometry" />
        </mxCell>
        <mxCell id="AmmwaXs2EuNaA92b2rAX-21" style="edgeStyle=orthogonalEdgeStyle;rounded=0;orthogonalLoop=1;jettySize=auto;html=1;exitX=0;exitY=1;exitDx=0;exitDy=0;curved=1;" parent="1" source="AmmwaXs2EuNaA92b2rAX-8" edge="1">
          <mxGeometry relative="1" as="geometry">
            <mxPoint x="-130" y="530" as="targetPoint" />
          </mxGeometry>
        </mxCell>
        <mxCell id="AmmwaXs2EuNaA92b2rAX-41" style="edgeStyle=orthogonalEdgeStyle;rounded=0;orthogonalLoop=1;jettySize=auto;html=1;exitX=0.25;exitY=1;exitDx=0;exitDy=0;curved=1;" parent="1" source="AmmwaXs2EuNaA92b2rAX-8" target="AmmwaXs2EuNaA92b2rAX-9" edge="1">
          <mxGeometry relative="1" as="geometry" />
        </mxCell>
        <mxCell id="AmmwaXs2EuNaA92b2rAX-42" style="edgeStyle=orthogonalEdgeStyle;rounded=0;orthogonalLoop=1;jettySize=auto;html=1;exitX=1;exitY=1;exitDx=0;exitDy=0;entryX=0.5;entryY=0;entryDx=0;entryDy=0;curved=1;" parent="1" source="AmmwaXs2EuNaA92b2rAX-8" target="AmmwaXs2EuNaA92b2rAX-11" edge="1">
          <mxGeometry relative="1" as="geometry">
            <mxPoint x="670" y="500" as="targetPoint" />
          </mxGeometry>
        </mxCell>
        <mxCell id="AmmwaXs2EuNaA92b2rAX-8" value="Project LeaderShip" style="rounded=1;whiteSpace=wrap;html=1;" parent="1" vertex="1">
          <mxGeometry x="180" y="220" width="120" height="60" as="geometry" />
        </mxCell>
        <mxCell id="AmmwaXs2EuNaA92b2rAX-9" value="Marketing Team" style="rounded=1;whiteSpace=wrap;html=1;" parent="1" vertex="1">
          <mxGeometry x="-20" y="530" width="120" height="60" as="geometry" />
        </mxCell>
        <mxCell id="AmmwaXs2EuNaA92b2rAX-10" value="Sales Team" style="rounded=1;whiteSpace=wrap;html=1;" parent="1" vertex="1">
          <mxGeometry x="490" y="530" width="120" height="60" as="geometry" />
        </mxCell>
        <mxCell id="AmmwaXs2EuNaA92b2rAX-11" value="Cyber Security Team" style="rounded=1;whiteSpace=wrap;html=1;" parent="1" vertex="1">
          <mxGeometry x="630" y="530" width="120" height="60" as="geometry" />
        </mxCell>
        <mxCell id="AmmwaXs2EuNaA92b2rAX-47" style="edgeStyle=orthogonalEdgeStyle;rounded=0;orthogonalLoop=1;jettySize=auto;html=1;entryX=0.5;entryY=0;entryDx=0;entryDy=0;" parent="1" source="AmmwaXs2EuNaA92b2rAX-12" edge="1">
          <mxGeometry relative="1" as="geometry">
            <mxPoint x="200" y="690" as="targetPoint" />
          </mxGeometry>
        </mxCell>
        <mxCell id="AmmwaXs2EuNaA92b2rAX-12" value="Product Development Team" style="rounded=1;whiteSpace=wrap;html=1;" parent="1" vertex="1">
          <mxGeometry x="140" y="540" width="120" height="60" as="geometry" />
        </mxCell>
        <mxCell id="AmmwaXs2EuNaA92b2rAX-13" value="Customer Support Team" style="rounded=1;whiteSpace=wrap;html=1;" parent="1" vertex="1">
          <mxGeometry x="330" y="530" width="120" height="60" as="geometry" />
        </mxCell>
        <mxCell id="AmmwaXs2EuNaA92b2rAX-15" value="Finance Team" style="rounded=1;whiteSpace=wrap;html=1;" parent="1" vertex="1">
          <mxGeometry x="-170" y="530" width="120" height="60" as="geometry" />
        </mxCell>
        <mxCell id="AmmwaXs2EuNaA92b2rAX-16" style="edgeStyle=orthogonalEdgeStyle;rounded=0;orthogonalLoop=1;jettySize=auto;html=1;entryX=0.577;entryY=-0.047;entryDx=0;entryDy=0;entryPerimeter=0;" parent="1" source="AmmwaXs2EuNaA92b2rAX-8" target="AmmwaXs2EuNaA92b2rAX-12" edge="1">
          <mxGeometry relative="1" as="geometry" />
        </mxCell>
        <mxCell id="AmmwaXs2EuNaA92b2rAX-62" style="edgeStyle=orthogonalEdgeStyle;rounded=0;orthogonalLoop=1;jettySize=auto;html=1;exitX=0.5;exitY=1;exitDx=0;exitDy=0;" parent="1" source="AmmwaXs2EuNaA92b2rAX-22" target="AmmwaXs2EuNaA92b2rAX-60" edge="1">
          <mxGeometry relative="1" as="geometry" />
        </mxCell>
        <mxCell id="AmmwaXs2EuNaA92b2rAX-63" style="edgeStyle=orthogonalEdgeStyle;rounded=0;orthogonalLoop=1;jettySize=auto;html=1;exitX=0.5;exitY=1;exitDx=0;exitDy=0;entryX=0.5;entryY=0;entryDx=0;entryDy=0;" parent="1" source="AmmwaXs2EuNaA92b2rAX-22" target="AmmwaXs2EuNaA92b2rAX-61" edge="1">
          <mxGeometry relative="1" as="geometry" />
        </mxCell>
        <mxCell id="AmmwaXs2EuNaA92b2rAX-64" style="edgeStyle=orthogonalEdgeStyle;rounded=0;orthogonalLoop=1;jettySize=auto;html=1;exitX=0.5;exitY=1;exitDx=0;exitDy=0;entryX=0.5;entryY=0;entryDx=0;entryDy=0;" parent="1" source="AmmwaXs2EuNaA92b2rAX-22" target="AmmwaXs2EuNaA92b2rAX-29" edge="1">
          <mxGeometry relative="1" as="geometry" />
        </mxCell>
        <mxCell id="B1onw2fwJoUeK0mw5WqB-4" style="edgeStyle=orthogonalEdgeStyle;rounded=0;orthogonalLoop=1;jettySize=auto;html=1;exitX=0.5;exitY=1;exitDx=0;exitDy=0;" edge="1" parent="1" source="AmmwaXs2EuNaA92b2rAX-22" target="B1onw2fwJoUeK0mw5WqB-1">
          <mxGeometry relative="1" as="geometry" />
        </mxCell>
        <mxCell id="AmmwaXs2EuNaA92b2rAX-22" value="Product Manager" style="rounded=1;whiteSpace=wrap;html=1;" parent="1" vertex="1">
          <mxGeometry x="150" y="690" width="120" height="60" as="geometry" />
        </mxCell>
        <mxCell id="AmmwaXs2EuNaA92b2rAX-29" value="UI/UX Team" style="rounded=1;whiteSpace=wrap;html=1;" parent="1" vertex="1">
          <mxGeometry x="-40" y="860" width="120" height="60" as="geometry" />
        </mxCell>
        <mxCell id="AmmwaXs2EuNaA92b2rAX-40" style="edgeStyle=orthogonalEdgeStyle;rounded=0;orthogonalLoop=1;jettySize=auto;html=1;exitX=0.5;exitY=1;exitDx=0;exitDy=0;entryX=0.5;entryY=0;entryDx=0;entryDy=0;" parent="1" source="AmmwaXs2EuNaA92b2rAX-39" target="AmmwaXs2EuNaA92b2rAX-8" edge="1">
          <mxGeometry relative="1" as="geometry" />
        </mxCell>
        <mxCell id="AmmwaXs2EuNaA92b2rAX-39" value="Project Six" style="rounded=1;whiteSpace=wrap;html=1;" parent="1" vertex="1">
          <mxGeometry x="180" y="70" width="120" height="60" as="geometry" />
        </mxCell>
        <mxCell id="AmmwaXs2EuNaA92b2rAX-56" style="edgeStyle=orthogonalEdgeStyle;rounded=0;orthogonalLoop=1;jettySize=auto;html=1;exitX=0.5;exitY=1;exitDx=0;exitDy=0;" parent="1" edge="1">
          <mxGeometry relative="1" as="geometry">
            <mxPoint x="220" y="890" as="sourcePoint" />
            <mxPoint x="220" y="890" as="targetPoint" />
          </mxGeometry>
        </mxCell>
        <mxCell id="AmmwaXs2EuNaA92b2rAX-58" value="Hardware Team" style="rounded=1;whiteSpace=wrap;html=1;" parent="1" vertex="1">
          <mxGeometry x="700" y="860" width="120" height="60" as="geometry" />
        </mxCell>
        <mxCell id="AmmwaXs2EuNaA92b2rAX-59" style="edgeStyle=orthogonalEdgeStyle;rounded=0;orthogonalLoop=1;jettySize=auto;html=1;entryX=0.638;entryY=-0.05;entryDx=0;entryDy=0;entryPerimeter=0;exitX=0.5;exitY=1;exitDx=0;exitDy=0;" parent="1" source="AmmwaXs2EuNaA92b2rAX-22" target="AmmwaXs2EuNaA92b2rAX-58" edge="1">
          <mxGeometry relative="1" as="geometry" />
        </mxCell>
        <mxCell id="AmmwaXs2EuNaA92b2rAX-70" style="edgeStyle=orthogonalEdgeStyle;rounded=0;orthogonalLoop=1;jettySize=auto;html=1;" parent="1" source="AmmwaXs2EuNaA92b2rAX-60" edge="1">
          <mxGeometry relative="1" as="geometry">
            <mxPoint x="210" y="980" as="targetPoint" />
          </mxGeometry>
        </mxCell>
        <mxCell id="AmmwaXs2EuNaA92b2rAX-60" value="Services Integration Team&amp;nbsp;" style="rounded=1;whiteSpace=wrap;html=1;" parent="1" vertex="1">
          <mxGeometry x="150" y="860" width="120" height="60" as="geometry" />
        </mxCell>
        <mxCell id="AmmwaXs2EuNaA92b2rAX-61" value="QA Team" style="rounded=1;whiteSpace=wrap;html=1;" parent="1" vertex="1">
          <mxGeometry x="410" y="860" width="120" height="60" as="geometry" />
        </mxCell>
        <mxCell id="AmmwaXs2EuNaA92b2rAX-66" value="Backend DevelopmentTeam" style="rounded=1;whiteSpace=wrap;html=1;" parent="1" vertex="1">
          <mxGeometry x="-170" y="1010" width="120" height="60" as="geometry" />
        </mxCell>
        <mxCell id="AmmwaXs2EuNaA92b2rAX-71" value="API Developers" style="rounded=1;whiteSpace=wrap;html=1;" parent="1" vertex="1">
          <mxGeometry x="150" y="980" width="120" height="60" as="geometry" />
        </mxCell>
        <mxCell id="B1onw2fwJoUeK0mw5WqB-6" style="edgeStyle=orthogonalEdgeStyle;rounded=0;orthogonalLoop=1;jettySize=auto;html=1;exitX=0.5;exitY=1;exitDx=0;exitDy=0;entryX=0.5;entryY=0;entryDx=0;entryDy=0;" edge="1" parent="1" source="B1onw2fwJoUeK0mw5WqB-1" target="AmmwaXs2EuNaA92b2rAX-66">
          <mxGeometry relative="1" as="geometry" />
        </mxCell>
        <mxCell id="B1onw2fwJoUeK0mw5WqB-1" value="Development Team" style="rounded=1;whiteSpace=wrap;html=1;" vertex="1" parent="1">
          <mxGeometry x="-250" y="860" width="120" height="60" as="geometry" />
        </mxCell>
        <mxCell id="B1onw2fwJoUeK0mw5WqB-2" value="Front END DevelopmentTeam" style="rounded=1;whiteSpace=wrap;html=1;" vertex="1" parent="1">
          <mxGeometry x="-360" y="1010" width="120" height="60" as="geometry" />
        </mxCell>
        <mxCell id="B1onw2fwJoUeK0mw5WqB-5" style="edgeStyle=orthogonalEdgeStyle;rounded=0;orthogonalLoop=1;jettySize=auto;html=1;entryX=0.398;entryY=-0.04;entryDx=0;entryDy=0;entryPerimeter=0;" edge="1" parent="1" source="B1onw2fwJoUeK0mw5WqB-1" target="B1onw2fwJoUeK0mw5WqB-2">
          <mxGeometry relative="1" as="geometry" />
        </mxCell>
      </root>
    </mxGraphModel>
  </diagram>
</mxfile>
